<?xml version="1.0" encoding="utf-8"?>
<!-- Generator: Adobe Illustrator 16.0.0, SVG Export Plug-In . SVG Version: 6.00 Build 0)  -->
<!DOCTYPE svg PUBLIC "-//W3C//DTD SVG 1.1//EN" "http://www.w3.org/Graphics/SVG/1.1/DTD/svg11.dtd">
<svg version="1.1" id="Camada_1" xmlns="http://www.w3.org/2000/svg" xmlns:xlink="http://www.w3.org/1999/xlink" x="0px" y="0px"
	 width="115.007px" height="50px" viewBox="0 0 115.007 50" enable-background="new 0 0 115.007 50" xml:space="preserve">
<g>
	<path fill="#FFFFFE" d="M4.719,37.686c-1.805,0-3.378-0.188-4.719-0.566v-6.653c1.375,0.345,2.63,0.517,3.765,0.517
		c1.753,0,3.008-0.545,3.765-1.637c0.756-1.093,1.134-2.798,1.134-5.119V0h7.994v24.174c0,4.4-1.006,7.754-3.017,10.057
		C11.629,36.533,8.655,37.686,4.719,37.686"/>
</g>
<g>
	<path fill="#FFFFFE" d="M40.264,37.697L31.187,8.123h-0.231c0.326,6.017,0.49,10.03,0.49,12.042v17.534h-7.143V0h10.881
		l8.922,28.829h0.155L53.724,0h10.882v37.697h-7.453V19.855c0-0.842,0.013-1.814,0.039-2.914s0.142-4.022,0.349-8.767h-0.232
		l-9.721,29.523H40.264z"/>
</g>
<g>
	<path fill="#FFFFFE" d="M3.876,42.995c-0.85,0-1.52,0.282-2.012,0.849c-0.492,0.564-0.738,1.34-0.738,2.322
		c0,1.014,0.237,1.793,0.711,2.346s1.15,0.827,2.027,0.827c0.54,0,1.154-0.097,1.845-0.29v0.787c-0.536,0.2-1.197,0.301-1.982,0.301
		c-1.139,0-2.017-0.346-2.636-1.035c-0.618-0.69-0.927-1.672-0.927-2.945c0-0.795,0.148-1.494,0.447-2.094
		c0.297-0.599,0.727-1.061,1.29-1.385c0.562-0.324,1.224-0.486,1.985-0.486c0.811,0,1.519,0.148,2.125,0.445l-0.381,0.77
		C5.046,43.133,4.461,42.995,3.876,42.995z"/>
	<path fill="#FFFFFE" d="M16.921,47.129c0,0.945-0.238,1.682-0.713,2.213c-0.476,0.53-1.133,0.795-1.972,0.795
		c-0.518,0-0.979-0.121-1.38-0.363c-0.402-0.244-0.712-0.594-0.931-1.047c-0.218-0.455-0.328-0.988-0.328-1.598
		c0-0.943,0.236-1.682,0.708-2.207c0.473-0.527,1.128-0.79,1.967-0.79c0.81,0,1.455,0.269,1.932,0.81
		C16.683,45.479,16.921,46.21,16.921,47.129z M12.507,47.129c0,0.74,0.148,1.305,0.444,1.691c0.296,0.388,0.731,0.582,1.306,0.582
		c0.574,0,1.01-0.193,1.309-0.58c0.298-0.385,0.447-0.949,0.447-1.693c0-0.736-0.149-1.296-0.447-1.679
		c-0.298-0.382-0.737-0.574-1.319-0.574c-0.575,0-1.008,0.188-1.3,0.565C12.654,45.82,12.507,46.381,12.507,47.129z"/>
	<path fill="#FFFFFE" d="M27.081,50.031v-3.748c0-0.473-0.107-0.824-0.322-1.059c-0.215-0.231-0.552-0.35-1.01-0.35
		c-0.606,0-1.05,0.165-1.332,0.492c-0.282,0.328-0.423,0.869-0.423,1.623v3.039h-0.877v-5.793h0.713l0.143,0.793h0.042
		c0.18-0.285,0.432-0.508,0.756-0.664s0.686-0.234,1.084-0.234c0.698,0,1.223,0.168,1.575,0.506
		c0.353,0.336,0.529,0.873,0.529,1.614v3.778h-0.878V50.031z"/>
	<path fill="#FFFFFE" d="M38.155,48.451c0,0.539-0.201,0.955-0.603,1.246c-0.402,0.294-0.966,0.439-1.692,0.439
		c-0.768,0-1.367-0.121-1.797-0.365v-0.813c0.278,0.142,0.577,0.252,0.896,0.333c0.319,0.082,0.626,0.122,0.922,0.122
		c0.458,0,0.811-0.073,1.058-0.22s0.37-0.369,0.37-0.67c0-0.225-0.098-0.418-0.294-0.578c-0.195-0.16-0.577-0.35-1.145-0.568
		c-0.539-0.199-0.922-0.375-1.15-0.525c-0.227-0.149-0.396-0.318-0.507-0.511c-0.111-0.188-0.167-0.417-0.167-0.682
		c0-0.474,0.192-0.845,0.576-1.118c0.384-0.273,0.912-0.409,1.581-0.409c0.624,0,1.233,0.126,1.829,0.38l-0.312,0.715
		c-0.582-0.24-1.108-0.359-1.581-0.359c-0.416,0-0.729,0.064-0.941,0.195c-0.211,0.131-0.317,0.311-0.317,0.539
		c0,0.155,0.041,0.287,0.12,0.396s0.207,0.213,0.383,0.313c0.176,0.099,0.515,0.24,1.015,0.428c0.688,0.25,1.152,0.503,1.394,0.756
		C38.034,47.747,38.155,48.066,38.155,48.451z"/>
	<path fill="#FFFFFE" d="M45.052,44.236v3.76c0,0.473,0.107,0.824,0.323,1.059c0.215,0.231,0.551,0.348,1.009,0.348
		c0.606,0,1.05-0.166,1.33-0.496c0.28-0.332,0.421-0.873,0.421-1.623v-3.045h0.877v5.793h-0.725l-0.127-0.776h-0.047
		c-0.18,0.285-0.43,0.504-0.749,0.656c-0.319,0.151-0.683,0.228-1.092,0.228c-0.705,0-1.233-0.168-1.583-0.502
		c-0.351-0.334-0.526-0.871-0.526-1.607v-3.791h0.889V44.236z"/>
	<path fill="#FFFFFE" d="M56.406,50.031h-0.878v-8.227h0.878V50.031z"/>
	<path fill="#FFFFFE" d="M64.794,49.413c0.155,0,0.305-0.011,0.449-0.034s0.26-0.047,0.344-0.07v0.67
		c-0.095,0.047-0.235,0.084-0.42,0.115c-0.185,0.028-0.352,0.043-0.5,0.043c-1.12,0-1.681-0.59-1.681-1.771V44.92h-0.83v-0.424
		l0.83-0.364l0.37-1.237h0.508v1.344h1.681v0.683h-1.681v3.409c0,0.35,0.083,0.617,0.248,0.804
		C64.278,49.318,64.505,49.413,64.794,49.413z"/>
	<path fill="#FFFFFE" d="M76.392,47.129c0,0.945-0.238,1.682-0.714,2.213c-0.476,0.53-1.133,0.795-1.972,0.795
		c-0.518,0-0.979-0.121-1.38-0.363c-0.401-0.244-0.712-0.594-0.931-1.047c-0.218-0.455-0.328-0.988-0.328-1.598
		c0-0.943,0.236-1.682,0.708-2.207c0.473-0.527,1.128-0.79,1.967-0.79c0.811,0,1.455,0.269,1.932,0.81
		C76.152,45.479,76.392,46.21,76.392,47.129z M71.977,47.129c0,0.74,0.148,1.305,0.444,1.691c0.296,0.388,0.731,0.582,1.306,0.582
		s1.01-0.193,1.309-0.58c0.299-0.385,0.447-0.949,0.447-1.693c0-0.736-0.148-1.296-0.447-1.679
		c-0.298-0.382-0.737-0.574-1.319-0.574c-0.574,0-1.008,0.188-1.3,0.565C72.123,45.82,71.977,46.381,71.977,47.129z M72.992,43.339
		c0.169-0.22,0.352-0.483,0.547-0.794c0.196-0.311,0.35-0.579,0.462-0.809h1.068v0.111c-0.155,0.229-0.386,0.51-0.692,0.846
		c-0.306,0.334-0.573,0.594-0.798,0.777h-0.587V43.339z"/>
	<path fill="#FFFFFE" d="M85.229,44.132c0.257,0,0.488,0.021,0.693,0.063L85.8,45.009c-0.24-0.053-0.451-0.079-0.634-0.079
		c-0.469,0-0.87,0.19-1.203,0.571c-0.333,0.38-0.5,0.854-0.5,1.422v3.108h-0.877v-5.795h0.724l0.101,1.074h0.042
		c0.215-0.377,0.474-0.668,0.777-0.873C84.532,44.234,84.866,44.132,85.229,44.132z"/>
	<path fill="#FFFFFE" d="M91.576,42.667c0-0.201,0.049-0.349,0.147-0.44c0.099-0.095,0.222-0.141,0.371-0.141
		c0.14,0,0.262,0.047,0.364,0.143c0.103,0.096,0.153,0.24,0.153,0.438c0,0.196-0.051,0.345-0.153,0.44
		c-0.102,0.098-0.224,0.146-0.364,0.146c-0.148,0-0.271-0.049-0.371-0.146C91.625,43.012,91.576,42.863,91.576,42.667z
		 M92.527,50.031H91.65v-5.795h0.877V50.031z"/>
	<path fill="#FFFFFE" d="M104.045,47.129c0,0.945-0.238,1.682-0.714,2.213c-0.476,0.53-1.133,0.795-1.972,0.795
		c-0.518,0-0.979-0.121-1.38-0.363c-0.402-0.244-0.712-0.594-0.931-1.047c-0.218-0.455-0.328-0.988-0.328-1.598
		c0-0.943,0.236-1.682,0.708-2.207c0.473-0.527,1.128-0.79,1.967-0.79c0.811,0,1.455,0.269,1.932,0.81
		C103.807,45.479,104.045,46.21,104.045,47.129z M99.631,47.129c0,0.74,0.147,1.305,0.443,1.691
		c0.296,0.388,0.732,0.582,1.306,0.582c0.574,0,1.01-0.193,1.309-0.58c0.298-0.385,0.447-0.949,0.447-1.693
		c0-0.736-0.149-1.296-0.447-1.679c-0.298-0.382-0.737-0.574-1.319-0.574c-0.575,0-1.008,0.188-1.301,0.565
		C99.777,45.82,99.631,46.381,99.631,47.129z"/>
	<path fill="#FFFFFE" d="M113.979,48.451c0,0.539-0.201,0.955-0.604,1.246c-0.402,0.294-0.965,0.439-1.691,0.439
		c-0.77,0-1.367-0.121-1.797-0.365v-0.813c0.277,0.142,0.576,0.252,0.896,0.333c0.317,0.082,0.627,0.122,0.922,0.122
		c0.459,0,0.813-0.073,1.06-0.22c0.245-0.146,0.368-0.369,0.368-0.67c0-0.225-0.098-0.418-0.293-0.578
		c-0.194-0.16-0.575-0.35-1.146-0.568c-0.539-0.199-0.922-0.375-1.149-0.525c-0.228-0.149-0.396-0.318-0.506-0.511
		c-0.11-0.188-0.168-0.417-0.168-0.682c0-0.474,0.19-0.845,0.575-1.118c0.386-0.273,0.912-0.409,1.582-0.409
		c0.623,0,1.232,0.126,1.828,0.38l-0.313,0.715c-0.58-0.24-1.107-0.359-1.58-0.359c-0.416,0-0.729,0.064-0.941,0.195
		c-0.211,0.131-0.315,0.311-0.315,0.539c0,0.155,0.039,0.287,0.119,0.396c0.077,0.109,0.207,0.213,0.383,0.313
		c0.176,0.099,0.517,0.24,1.017,0.428c0.688,0.25,1.151,0.503,1.393,0.756C113.855,47.747,113.979,48.066,113.979,48.451z"/>
</g>
<g>
	<path fill="#F4F4F4" d="M112.787,13.499c-3.977-5.835-11.93-7.343-17.765-3.367c-2.569,1.75-4.626,4.494-5.419,7.265
		c-1.008,3.525-4.59,20.302-4.59,20.302s21.52-4.469,24.407-6.436C115.254,27.287,116.762,19.334,112.787,13.499 M98.635,23.141
		c-1.614-2.37-1.002-5.599,1.367-7.213c2.37-1.615,5.599-1.002,7.213,1.367c1.615,2.37,1.003,5.599-1.367,7.214
		C103.479,26.122,100.249,25.51,98.635,23.141"/>
</g>
<g>
	<path fill="#FFFFFF" d="M72.156,14.282c0.113,0.965,0.864,4.086,2.31,6.818c3.75,7.083,10.505,16.585,10.505,16.585
		s8.46-12.876,10.748-17.469c1.01-2.028,2.195-5.84,1.832-8.927C96.724,4.277,90.37-0.737,83.356,0.089
		C76.344,0.916,71.329,7.27,72.156,14.282 M79.597,12.547C79.261,9.7,81.298,7.12,84.146,6.784c2.847-0.335,5.427,1.701,5.763,4.549
		c0.335,2.847-1.701,5.427-4.548,5.763C82.513,17.431,79.932,15.395,79.597,12.547"/>
</g>
</svg>
