<?xml version="1.0" encoding="utf-8"?>
<!-- Generator: Adobe Illustrator 16.0.0, SVG Export Plug-In . SVG Version: 6.00 Build 0)  -->
<!DOCTYPE svg PUBLIC "-//W3C//DTD SVG 1.1//EN" "http://www.w3.org/Graphics/SVG/1.1/DTD/svg11.dtd">
<svg version="1.1" id="Camada_1" xmlns="http://www.w3.org/2000/svg" xmlns:xlink="http://www.w3.org/1999/xlink" x="0px" y="0px"
	 width="112.838px" height="50px" viewBox="0 0 112.838 50" enable-background="new 0 0 112.838 50" xml:space="preserve">
<g>
	<g>
		<path fill="#0875AA" d="M4.63,36.975c-1.771,0-3.314-0.186-4.63-0.556v-6.528c1.35,0.338,2.58,0.507,3.693,0.507
			c1.721,0,2.951-0.536,3.694-1.606C8.129,27.72,8.5,26.046,8.5,23.769V0h7.843v23.718c0,4.318-0.987,7.606-2.959,9.867
			C11.41,35.845,8.492,36.975,4.63,36.975"/>
	</g>
	<g>
		<path fill="#0875AA" d="M39.504,36.988L30.599,7.97h-0.228c0.32,5.903,0.481,9.841,0.481,11.814v17.204h-7.009V0H34.52
			l8.754,28.285h0.152L52.71,0h10.677v36.988h-7.312V19.481c0-0.826,0.013-1.779,0.038-2.859c0.026-1.079,0.14-3.947,0.342-8.602
			h-0.228l-9.538,28.968H39.504z"/>
	</g>
	<g>
		<path fill="#0875AA" d="M3.803,42.184c-0.833,0-1.491,0.278-1.974,0.833s-0.724,1.314-0.724,2.279c0,0.993,0.232,1.76,0.698,2.301
			c0.465,0.541,1.128,0.812,1.989,0.812c0.529,0,1.132-0.095,1.81-0.285v0.773c-0.526,0.196-1.174,0.295-1.945,0.295
			c-1.117,0-1.979-0.339-2.585-1.017s-0.911-1.641-0.911-2.889c0-0.781,0.146-1.467,0.438-2.055c0.292-0.588,0.714-1.04,1.266-1.358
			s1.201-0.478,1.948-0.478c0.795,0,1.49,0.146,2.085,0.436l-0.374,0.758C4.951,42.319,4.376,42.184,3.803,42.184z"/>
		<path fill="#0875AA" d="M16.603,46.24c0,0.927-0.233,1.65-0.7,2.171s-1.112,0.78-1.935,0.78c-0.508,0-0.959-0.119-1.354-0.357
			c-0.395-0.238-0.699-0.581-0.913-1.027s-0.322-0.968-0.322-1.566c0-0.927,0.232-1.648,0.695-2.166
			c0.463-0.517,1.106-0.775,1.93-0.775c0.795,0,1.427,0.265,1.896,0.794C16.368,44.622,16.603,45.338,16.603,46.24z M12.271,46.24
			c0,0.727,0.145,1.279,0.436,1.66c0.291,0.38,0.717,0.57,1.281,0.57c0.563,0,0.991-0.189,1.284-0.568
			c0.292-0.378,0.438-0.933,0.438-1.662c0-0.723-0.146-1.271-0.438-1.646c-0.292-0.376-0.724-0.563-1.294-0.563
			c-0.564,0-0.989,0.186-1.276,0.556S12.271,45.507,12.271,46.24z"/>
		<path fill="#0875AA" d="M26.57,49.088V45.41c0-0.463-0.106-0.809-0.316-1.037c-0.211-0.229-0.542-0.343-0.991-0.343
			c-0.595,0-1.031,0.161-1.307,0.482c-0.277,0.322-0.415,0.853-0.415,1.593v2.982H22.68v-5.685h0.7l0.14,0.777h0.042
			c0.176-0.279,0.424-0.497,0.742-0.65c0.318-0.154,0.673-0.231,1.063-0.231c0.685,0,1.2,0.166,1.546,0.496
			c0.346,0.33,0.519,0.858,0.519,1.584v3.709H26.57z"/>
		<path fill="#0875AA" d="M37.435,47.537c0,0.529-0.197,0.938-0.591,1.225s-0.947,0.43-1.66,0.43c-0.754,0-1.342-0.119-1.764-0.357
			v-0.799c0.273,0.138,0.566,0.247,0.879,0.326c0.313,0.08,0.615,0.12,0.905,0.12c0.45,0,0.795-0.072,1.038-0.216
			s0.363-0.362,0.363-0.656c0-0.221-0.096-0.41-0.288-0.567s-0.566-0.344-1.123-0.558c-0.529-0.197-0.905-0.369-1.128-0.517
			c-0.223-0.146-0.389-0.313-0.498-0.5c-0.109-0.188-0.164-0.41-0.164-0.67c0-0.463,0.188-0.829,0.565-1.097
			s0.894-0.402,1.551-0.402c0.612,0,1.21,0.125,1.795,0.374l-0.306,0.7c-0.571-0.235-1.087-0.353-1.551-0.353
			c-0.408,0-0.716,0.063-0.923,0.191s-0.312,0.305-0.312,0.529c0,0.152,0.039,0.282,0.117,0.389c0.078,0.107,0.204,0.21,0.376,0.307
			c0.173,0.097,0.505,0.236,0.996,0.42c0.674,0.246,1.13,0.493,1.367,0.742C37.317,46.848,37.435,47.16,37.435,47.537z"/>
		<path fill="#0875AA" d="M44.202,43.403v3.688c0,0.464,0.105,0.81,0.316,1.038c0.211,0.228,0.541,0.342,0.991,0.342
			c0.595,0,1.03-0.162,1.305-0.487s0.412-0.856,0.412-1.593v-2.987h0.861v5.685h-0.711l-0.125-0.763h-0.046
			c-0.176,0.28-0.421,0.495-0.734,0.644c-0.313,0.148-0.67,0.223-1.071,0.223c-0.692,0-1.209-0.164-1.554-0.492
			c-0.344-0.329-0.516-0.854-0.516-1.577v-3.719H44.202z"/>
		<path fill="#0875AA" d="M55.342,49.088h-0.861v-8.071h0.861V49.088z"/>
		<path fill="#0875AA" d="M63.572,48.481c0.152,0,0.299-0.012,0.441-0.034c0.142-0.022,0.254-0.046,0.337-0.07v0.659
			c-0.093,0.045-0.23,0.082-0.412,0.111s-0.345,0.044-0.49,0.044c-1.1,0-1.649-0.579-1.649-1.737v-3.382h-0.814v-0.415l0.814-0.358
			l0.363-1.213h0.498v1.317h1.649v0.669h-1.649v3.346c0,0.342,0.081,0.604,0.244,0.788S63.289,48.481,63.572,48.481z"/>
		<path fill="#0875AA" d="M74.951,46.24c0,0.927-0.233,1.65-0.7,2.171c-0.467,0.521-1.112,0.78-1.935,0.78
			c-0.508,0-0.959-0.119-1.354-0.357c-0.395-0.238-0.699-0.581-0.913-1.027s-0.322-0.968-0.322-1.566
			c0-0.927,0.232-1.648,0.695-2.166c0.463-0.517,1.106-0.775,1.929-0.775c0.796,0,1.427,0.265,1.896,0.794
			S74.951,45.338,74.951,46.24z M70.619,46.24c0,0.727,0.146,1.279,0.436,1.66c0.291,0.38,0.717,0.57,1.281,0.57
			c0.563,0,0.991-0.189,1.284-0.568c0.292-0.378,0.438-0.933,0.438-1.662c0-0.723-0.146-1.271-0.438-1.646
			c-0.292-0.376-0.724-0.563-1.294-0.563c-0.563,0-0.989,0.186-1.276,0.556S70.619,45.507,70.619,46.24z M71.615,42.521
			c0.166-0.215,0.345-0.475,0.537-0.778c0.192-0.305,0.343-0.568,0.454-0.794h1.048v0.109c-0.152,0.225-0.379,0.501-0.68,0.83
			c-0.301,0.328-0.562,0.582-0.783,0.762h-0.576V42.521z"/>
		<path fill="#0875AA" d="M83.621,43.299c0.252,0,0.479,0.021,0.68,0.063l-0.119,0.799c-0.235-0.052-0.443-0.078-0.623-0.078
			c-0.46,0-0.854,0.188-1.18,0.561c-0.327,0.374-0.49,0.839-0.49,1.396v3.05h-0.861v-5.685h0.71l0.099,1.053h0.042
			c0.211-0.37,0.465-0.655,0.762-0.856C82.938,43.399,83.265,43.299,83.621,43.299z"/>
		<path fill="#0875AA" d="M89.849,41.862c0-0.197,0.049-0.342,0.146-0.433c0.097-0.092,0.218-0.138,0.363-0.138
			c0.139,0,0.258,0.047,0.358,0.14c0.101,0.094,0.15,0.237,0.15,0.431c0,0.194-0.05,0.338-0.15,0.434
			c-0.1,0.095-0.219,0.143-0.358,0.143c-0.145,0-0.266-0.048-0.363-0.143C89.897,42.2,89.849,42.057,89.849,41.862z M90.782,49.088
			h-0.861v-5.685h0.861V49.088z"/>
		<path fill="#0875AA" d="M102.083,46.24c0,0.927-0.233,1.65-0.701,2.171c-0.467,0.521-1.112,0.78-1.935,0.78
			c-0.508,0-0.959-0.119-1.354-0.357c-0.394-0.238-0.698-0.581-0.913-1.027c-0.215-0.446-0.322-0.968-0.322-1.566
			c0-0.927,0.231-1.648,0.695-2.166c0.463-0.517,1.106-0.775,1.929-0.775c0.796,0,1.427,0.265,1.896,0.794
			S102.083,45.338,102.083,46.24z M97.752,46.24c0,0.727,0.146,1.279,0.436,1.66c0.291,0.38,0.717,0.57,1.281,0.57
			c0.564,0,0.992-0.189,1.284-0.568c0.292-0.378,0.438-0.933,0.438-1.662c0-0.723-0.146-1.271-0.438-1.646
			c-0.292-0.376-0.724-0.563-1.294-0.563c-0.563,0-0.989,0.186-1.276,0.556S97.752,45.507,97.752,46.24z"/>
		<path fill="#0875AA" d="M111.828,47.537c0,0.529-0.197,0.938-0.592,1.225c-0.394,0.287-0.947,0.43-1.659,0.43
			c-0.754,0-1.342-0.119-1.764-0.357v-0.799c0.272,0.138,0.565,0.247,0.879,0.326c0.313,0.08,0.614,0.12,0.905,0.12
			c0.449,0,0.795-0.072,1.037-0.216s0.363-0.362,0.363-0.656c0-0.221-0.096-0.41-0.288-0.567c-0.191-0.157-0.566-0.344-1.123-0.558
			c-0.528-0.197-0.905-0.369-1.128-0.517c-0.223-0.146-0.389-0.313-0.498-0.5c-0.108-0.188-0.163-0.41-0.163-0.67
			c0-0.463,0.188-0.829,0.565-1.097s0.894-0.402,1.551-0.402c0.612,0,1.21,0.125,1.795,0.374l-0.307,0.7
			c-0.57-0.235-1.087-0.353-1.551-0.353c-0.408,0-0.716,0.063-0.923,0.191c-0.208,0.128-0.312,0.305-0.312,0.529
			c0,0.152,0.039,0.282,0.117,0.389c0.077,0.107,0.202,0.21,0.376,0.307c0.173,0.097,0.505,0.236,0.995,0.42
			c0.675,0.246,1.131,0.493,1.367,0.742S111.828,47.16,111.828,47.537z"/>
	</g>
	<g>
		<path fill="#00B597" d="M110.659,13.244c-3.9-5.725-11.704-7.204-17.429-3.304c-2.521,1.717-4.539,4.409-5.317,7.128
			c-0.99,3.458-4.503,19.919-4.503,19.919s21.114-4.386,23.945-6.314C113.081,26.773,114.56,18.97,110.659,13.244 M96.774,22.704
			c-1.583-2.325-0.983-5.494,1.342-7.077c2.325-1.584,5.493-0.983,7.077,1.341c1.584,2.325,0.983,5.494-1.341,7.078
			C101.527,25.63,98.358,25.029,96.774,22.704"/>
	</g>
	<g>
		<path fill="#0875AA" d="M70.794,14.013c0.112,0.947,0.848,4.008,2.267,6.689c3.68,6.949,10.307,16.273,10.307,16.273
			s8.301-12.634,10.545-17.14c0.991-1.99,2.154-5.73,1.797-8.759c-0.811-6.88-7.045-11.801-13.925-10.99
			C74.904,0.898,69.984,7.132,70.794,14.013 M78.096,12.311c-0.329-2.794,1.669-5.325,4.463-5.655
			c2.793-0.329,5.325,1.669,5.654,4.463c0.329,2.793-1.669,5.325-4.462,5.654C80.957,17.103,78.425,15.104,78.096,12.311"/>
	</g>
</g>
</svg>
