<?xml version="1.0" encoding="utf-8"?>
<!-- Generator: Adobe Illustrator 16.0.0, SVG Export Plug-In . SVG Version: 6.00 Build 0)  -->
<!DOCTYPE svg PUBLIC "-//W3C//DTD SVG 1.1//EN" "http://www.w3.org/Graphics/SVG/1.1/DTD/svg11.dtd">
<svg version="1.1" id="Camada_1" xmlns="http://www.w3.org/2000/svg" xmlns:xlink="http://www.w3.org/1999/xlink" x="0px" y="0px"
	 width="91.701px" height="40px" viewBox="0 0 91.701 40" enable-background="new 0 0 91.701 40" xml:space="preserve">
<g>
	<g>
		<path fill="#FFFFFE" d="M3.763,30.049c-1.439,0-2.694-0.15-3.763-0.452v-5.305c1.097,0.273,2.097,0.412,3.001,0.412
			c1.398,0,2.398-0.437,3.002-1.307c0.603-0.871,0.905-2.23,0.905-4.081V0h6.374v19.275c0,3.509-0.801,6.182-2.405,8.018
			C9.273,29.13,6.901,30.049,3.763,30.049"/>
	</g>
	<g>
		<path fill="#FFFFFE" d="M32.104,30.06L24.867,6.477h-0.184c0.26,4.797,0.39,7.998,0.39,9.601V30.06h-5.695V0h8.676l7.114,22.987
			h0.124L42.837,0h8.677v30.06h-5.942V15.832c0-0.671,0.01-1.446,0.03-2.323c0.021-0.877,0.113-3.208,0.278-6.991h-0.186
			L37.943,30.06H32.104z"/>
	</g>
	<g>
		<path fill="#FFFFFE" d="M3.091,34.282c-0.678,0-1.212,0.226-1.604,0.677c-0.392,0.451-0.588,1.069-0.588,1.853
			c0,0.808,0.189,1.43,0.567,1.868c0.378,0.441,0.917,0.661,1.617,0.661c0.43,0,0.92-0.077,1.471-0.231v0.628
			c-0.427,0.159-0.954,0.239-1.581,0.239c-0.908,0-1.608-0.275-2.101-0.825c-0.494-0.552-0.74-1.333-0.74-2.348
			c0-0.637,0.118-1.192,0.356-1.67s0.581-0.846,1.028-1.105c0.449-0.258,0.977-0.387,1.583-0.387c0.646,0,1.211,0.117,1.695,0.354
			L4.49,34.61C4.023,34.391,3.557,34.282,3.091,34.282z"/>
		<path fill="#FFFFFE" d="M13.493,37.578c0,0.754-0.19,1.342-0.569,1.765s-0.903,0.634-1.572,0.634c-0.413,0-0.78-0.097-1.1-0.29
			c-0.321-0.195-0.568-0.473-0.742-0.835c-0.174-0.362-0.261-0.788-0.261-1.273c0-0.753,0.188-1.339,0.565-1.76
			s0.899-0.63,1.568-0.63c0.646,0,1.16,0.215,1.541,0.645C13.302,36.264,13.493,36.846,13.493,37.578z M9.973,37.578
			c0,0.591,0.118,1.039,0.354,1.35c0.236,0.309,0.583,0.463,1.042,0.463s0.806-0.152,1.043-0.461
			c0.238-0.308,0.356-0.759,0.356-1.352c0-0.588-0.119-1.032-0.356-1.339c-0.237-0.304-0.588-0.457-1.052-0.457
			c-0.458,0-0.804,0.151-1.037,0.451C10.089,36.535,9.973,36.982,9.973,37.578z"/>
		<path fill="#FFFFFE" d="M21.593,39.893v-2.988c0-0.377-0.086-0.657-0.257-0.844c-0.172-0.186-0.44-0.278-0.805-0.278
			c-0.484,0-0.838,0.131-1.063,0.393s-0.337,0.693-0.337,1.295v2.423h-0.7v-4.62h0.569l0.114,0.633h0.034
			c0.144-0.228,0.344-0.405,0.603-0.529c0.258-0.125,0.546-0.188,0.864-0.188c0.556,0,0.975,0.135,1.256,0.402
			c0.281,0.268,0.422,0.697,0.422,1.289v3.013H21.593z"/>
		<path fill="#FFFFFE" d="M30.423,38.632c0,0.431-0.161,0.763-0.481,0.995c-0.32,0.233-0.77,0.35-1.349,0.35
			c-0.613,0-1.09-0.097-1.433-0.29v-0.65c0.222,0.113,0.46,0.202,0.714,0.267c0.254,0.064,0.499,0.097,0.735,0.097
			c0.366,0,0.646-0.059,0.843-0.176c0.196-0.114,0.295-0.294,0.295-0.531c0-0.182-0.078-0.335-0.234-0.463
			c-0.156-0.127-0.46-0.278-0.913-0.453c-0.43-0.159-0.735-0.301-0.917-0.419c-0.181-0.119-0.316-0.256-0.405-0.407
			c-0.088-0.151-0.132-0.332-0.132-0.544c0-0.376,0.153-0.672,0.459-0.892c0.307-0.218,0.727-0.326,1.261-0.326
			c0.498,0,0.984,0.101,1.458,0.304l-0.249,0.568c-0.463-0.189-0.884-0.286-1.26-0.286c-0.332,0-0.582,0.052-0.75,0.157
			c-0.168,0.103-0.252,0.245-0.252,0.429c0,0.123,0.031,0.229,0.095,0.316c0.063,0.086,0.165,0.169,0.306,0.249
			c0.14,0.079,0.41,0.191,0.81,0.341c0.547,0.199,0.918,0.4,1.11,0.602C30.327,38.072,30.423,38.326,30.423,38.632z"/>
		<path fill="#FFFFFE" d="M35.922,35.272v2.997c0,0.376,0.085,0.658,0.257,0.844c0.171,0.186,0.439,0.277,0.805,0.277
			c0.483,0,0.837-0.131,1.061-0.396c0.224-0.264,0.335-0.694,0.335-1.293v-2.429h0.7v4.62h-0.578l-0.101-0.618h-0.038
			c-0.143,0.228-0.342,0.4-0.596,0.521c-0.254,0.121-0.544,0.181-0.871,0.181c-0.562,0-0.983-0.133-1.263-0.4
			c-0.279-0.266-0.419-0.692-0.419-1.28v-3.023H35.922z"/>
		<path fill="#FFFFFE" d="M44.976,39.893h-0.7v-6.559h0.7V39.893z"/>
		<path fill="#FFFFFE" d="M51.664,39.399c0.124,0,0.243-0.009,0.359-0.026c0.115-0.019,0.206-0.038,0.273-0.059v0.535
			c-0.076,0.037-0.188,0.067-0.335,0.091c-0.147,0.024-0.28,0.036-0.398,0.036c-0.894,0-1.34-0.471-1.34-1.411v-2.749h-0.662V35.48
			l0.662-0.292l0.295-0.987h0.405v1.071h1.34v0.544h-1.34v2.719c0,0.278,0.066,0.491,0.198,0.641
			C51.252,39.324,51.433,39.399,51.664,39.399z"/>
		<path fill="#FFFFFE" d="M60.911,37.578c0,0.754-0.19,1.342-0.569,1.765s-0.903,0.634-1.572,0.634c-0.413,0-0.78-0.097-1.1-0.29
			c-0.321-0.195-0.568-0.473-0.742-0.835s-0.261-0.788-0.261-1.273c0-0.753,0.188-1.339,0.565-1.76s0.899-0.63,1.568-0.63
			c0.646,0,1.16,0.215,1.541,0.645C60.721,36.264,60.911,36.846,60.911,37.578z M57.391,37.578c0,0.591,0.118,1.039,0.354,1.35
			c0.236,0.309,0.583,0.463,1.042,0.463c0.458,0,0.805-0.152,1.043-0.461c0.238-0.308,0.356-0.759,0.356-1.352
			c0-0.588-0.119-1.032-0.356-1.339c-0.238-0.304-0.588-0.457-1.052-0.457c-0.458,0-0.804,0.151-1.037,0.451
			C57.508,36.535,57.391,36.982,57.391,37.578z M58.2,34.556c0.135-0.173,0.281-0.385,0.436-0.632
			c0.156-0.248,0.279-0.461,0.369-0.645h0.852v0.089c-0.124,0.183-0.308,0.406-0.552,0.674c-0.245,0.267-0.458,0.474-0.637,0.619
			H58.2V34.556z"/>
		<path fill="#FFFFFE" d="M67.958,35.188c0.206,0,0.389,0.016,0.552,0.05l-0.097,0.65c-0.191-0.042-0.36-0.064-0.506-0.064
			c-0.374,0-0.694,0.153-0.959,0.455c-0.266,0.305-0.398,0.683-0.398,1.134v2.479h-0.7v-4.62h0.578l0.08,0.856h0.034
			c0.171-0.3,0.378-0.534,0.62-0.695C67.403,35.271,67.668,35.188,67.958,35.188z"/>
		<path fill="#FFFFFE" d="M73.018,34.021c0-0.159,0.04-0.278,0.118-0.353c0.079-0.074,0.177-0.111,0.295-0.111
			c0.112,0,0.209,0.039,0.291,0.115c0.082,0.074,0.122,0.191,0.122,0.349s-0.041,0.275-0.122,0.353
			c-0.082,0.076-0.179,0.116-0.291,0.116c-0.118,0-0.217-0.04-0.295-0.116C73.058,34.296,73.018,34.178,73.018,34.021z
			 M73.777,39.893h-0.7v-4.62h0.7V39.893z"/>
		<path fill="#FFFFFE" d="M82.962,37.578c0,0.754-0.19,1.342-0.569,1.765c-0.38,0.423-0.903,0.634-1.573,0.634
			c-0.413,0-0.78-0.097-1.1-0.29c-0.32-0.195-0.568-0.473-0.742-0.835c-0.174-0.362-0.262-0.788-0.262-1.273
			c0-0.753,0.188-1.339,0.565-1.76c0.377-0.421,0.899-0.63,1.568-0.63c0.646,0,1.16,0.215,1.54,0.645
			C82.771,36.264,82.962,36.846,82.962,37.578z M79.441,37.578c0,0.591,0.118,1.039,0.354,1.35c0.236,0.309,0.583,0.463,1.042,0.463
			s0.806-0.152,1.043-0.461c0.238-0.308,0.356-0.759,0.356-1.352c0-0.588-0.118-1.032-0.356-1.339
			c-0.237-0.304-0.588-0.457-1.051-0.457c-0.458,0-0.804,0.151-1.037,0.451C79.558,36.535,79.441,36.982,79.441,37.578z"/>
		<path fill="#FFFFFE" d="M90.881,38.632c0,0.431-0.16,0.763-0.48,0.995c-0.321,0.233-0.771,0.35-1.35,0.35
			c-0.613,0-1.09-0.097-1.434-0.29v-0.65c0.223,0.113,0.46,0.202,0.715,0.267s0.5,0.097,0.736,0.097
			c0.364,0,0.646-0.059,0.843-0.176c0.196-0.114,0.295-0.294,0.295-0.531c0-0.182-0.079-0.335-0.233-0.463
			c-0.156-0.127-0.46-0.278-0.913-0.453c-0.431-0.159-0.735-0.301-0.917-0.419c-0.181-0.119-0.315-0.256-0.404-0.407
			s-0.133-0.332-0.133-0.544c0-0.376,0.152-0.672,0.459-0.892c0.306-0.218,0.727-0.326,1.261-0.326c0.497,0,0.983,0.101,1.459,0.304
			l-0.249,0.568c-0.464-0.189-0.884-0.286-1.261-0.286c-0.332,0-0.582,0.052-0.751,0.157c-0.168,0.103-0.253,0.245-0.253,0.429
			c0,0.123,0.032,0.229,0.095,0.316c0.063,0.086,0.165,0.169,0.307,0.249c0.141,0.079,0.409,0.191,0.81,0.341
			c0.547,0.199,0.918,0.4,1.11,0.602C90.784,38.072,90.881,38.326,90.881,38.632z"/>
	</g>
	<g>
		<path fill="#00B597" d="M89.931,10.764c-3.169-4.653-9.512-5.855-14.164-2.686c-2.048,1.396-3.688,3.583-4.321,5.793
			c-0.804,2.811-3.66,16.188-3.66,16.188s17.159-3.563,19.46-5.132C91.898,21.758,93.101,15.416,89.931,10.764 M78.647,18.451
			c-1.287-1.89-0.799-4.465,1.09-5.751c1.89-1.288,4.465-0.799,5.751,1.09c1.287,1.89,0.8,4.464-1.09,5.752
			C82.51,20.829,79.935,20.341,78.647,18.451"/>
	</g>
	<g>
		<path fill="#FFFFFE" d="M57.533,11.388c0.091,0.77,0.689,3.258,1.843,5.436c2.99,5.647,8.375,13.225,8.375,13.225
			s6.746-10.267,8.57-13.928c0.805-1.617,1.75-4.657,1.46-7.118c-0.659-5.592-5.725-9.59-11.317-8.932
			C60.874,0.73,56.875,5.796,57.533,11.388 M63.467,10.005c-0.268-2.271,1.356-4.328,3.626-4.596s4.328,1.356,4.595,3.626
			c0.268,2.271-1.356,4.328-3.626,4.595C65.792,13.899,63.735,12.275,63.467,10.005"/>
	</g>
</g>
</svg>
